<?xml version="1.0" encoding="UTF-8" standalone="no"?>
<!DOCTYPE svg PUBLIC "-//W3C//DTD SVG 1.1//EN" "http://www.w3.org/Graphics/SVG/1.1/DTD/svg11.dtd">
<svg width="100%" height="100%" viewBox="0 0 515 125" version="1.1" xmlns="http://www.w3.org/2000/svg" xmlns:xlink="http://www.w3.org/1999/xlink" xml:space="preserve" xmlns:serif="http://www.serif.com/" style="fill-rule:evenodd;clip-rule:evenodd;stroke-linejoin:round;stroke-miterlimit:2;">
    <g id="Artboard1" transform="matrix(1.02804,0,0,1.08507,-400.63,-371.973)">
        <rect x="389.704" y="342.81" width="500.591" height="114.379" style="fill:none;"/>
        <g transform="matrix(0.972728,0,0,0.921601,225.451,176.81)">
            <g>
                <g transform="matrix(1,0,0,1,149.405,82.0261)">
                    <path d="M160.53,103.268L110.204,103.268L100.204,153.595L150.53,153.595L160.53,103.268Z" style="fill:#BD3B33"/>
                </g>
                <g transform="matrix(1,0,0,1,214.765,82.0261)">
                    <path d="M160.53,103.268L110.204,103.268L100.204,153.595L150.53,153.595L160.53,103.268Z" style="fill:#677217"/>
                </g>
                <g transform="matrix(1,0,0,1,212.765,146.078)">
                    <path d="M150.53,103.268L100.204,103.268L90.204,153.595L140.53,153.595L150.53,103.268Z" style="fill:#6E6AC7"/>
                </g>
                <g transform="matrix(1,0,0,1,147.405,146.078)">
                    <path d="M150.53,103.268L100.204,103.268L90.204,153.595L140.53,153.595L150.53,103.268Z" style="fill:#B63A83"/>
                </g>
            </g>
            <g>
                <g transform="matrix(2.45455,0,0,1,-260.303,2.22045e-16)">
                    <path d="M207.742,185.294L200.001,185.294L190.223,299.673L197.964,299.673L207.742,185.294Z" style="fill:#5787D2;"/>
                </g>
                <g transform="matrix(2.45455,0,0,1,-290.303,2.22045e-16)">
                    <path d="M207.742,185.294L200.001,185.294L190.223,299.673L197.964,299.673L207.742,185.294Z" style="fill:#5787D2;"/>
                </g>
            </g>
            <g transform="matrix(1.65469,0,0,1.65193,-352.743,-60.3984)">
                <g transform="matrix(96,0,0,96,437.001,216.98)">
                    <path d="M0.573,0L0.43,0L0.482,-0.305L0.207,-0.305L0.153,0L0.01,0L0.134,-0.711L0.277,-0.711L0.227,-0.423L0.503,-0.423L0.553,-0.711L0.696,-0.711L0.573,0Z" style="fill-rule:nonzero; fill:#839395"/>
                </g>
                <g transform="matrix(96,0,0,96,503.282,216.98)">
                    <path d="M0.659,-0.711L0.579,-0.242C0.568,-0.164 0.535,-0.102 0.481,-0.056C0.427,-0.011 0.36,0.012 0.28,0.01C0.23,0.009 0.186,-0.002 0.149,-0.023C0.112,-0.044 0.085,-0.073 0.067,-0.112C0.05,-0.15 0.044,-0.193 0.049,-0.242L0.129,-0.711L0.272,-0.711L0.192,-0.241C0.19,-0.223 0.19,-0.206 0.192,-0.19C0.198,-0.137 0.23,-0.11 0.286,-0.108C0.326,-0.107 0.36,-0.118 0.385,-0.141C0.411,-0.165 0.428,-0.198 0.435,-0.242L0.515,-0.711L0.659,-0.711Z" style="fill-rule:nonzero; fill:#839395"/>
                </g>
                <g transform="matrix(96,0,0,96,565.063,216.98)">
                    <path d="M0.01,0L0.134,-0.711L0.355,-0.71C0.438,-0.71 0.5,-0.693 0.541,-0.66C0.582,-0.627 0.601,-0.58 0.597,-0.52C0.593,-0.448 0.551,-0.396 0.473,-0.362C0.501,-0.353 0.523,-0.334 0.539,-0.307C0.554,-0.281 0.561,-0.249 0.559,-0.212C0.554,-0.145 0.528,-0.093 0.48,-0.056C0.432,-0.019 0.366,0 0.283,0L0.01,0ZM0.208,-0.31L0.174,-0.118L0.287,-0.117C0.322,-0.117 0.351,-0.126 0.375,-0.143C0.399,-0.161 0.413,-0.184 0.417,-0.214C0.422,-0.243 0.418,-0.266 0.406,-0.282C0.393,-0.299 0.372,-0.308 0.342,-0.309L0.208,-0.31ZM0.225,-0.413L0.322,-0.412C0.358,-0.413 0.388,-0.421 0.411,-0.438C0.434,-0.454 0.448,-0.476 0.452,-0.505C0.46,-0.563 0.43,-0.591 0.362,-0.592L0.256,-0.592L0.225,-0.413Z" style="fill-rule:nonzero; fill:#839395"/>
                </g>
            </g>
        </g>
    </g>
</svg>
